<svg version="1.1" xmlns="http://www.w3.org/2000/svg" xmlns:xlink="http://www.w3.org/1999/xlink" width="597" height="360.0911" viewBox="0,0,597,360.0911"><g transform="translate(186,326)"><g data-paper-data="{&quot;isPaintingLayer&quot;:true}" fill-rule="nonzero" stroke-linejoin="miter" stroke-miterlimit="10" stroke-dasharray="" stroke-dashoffset="0" style="mix-blend-mode: normal"><path d="M144.03821,-175.38867c14.16463,0.20628 28.32927,0.41256 42.4939,0.61884c-1.50888,9.59795 -3.03273,19.38747 -3.14803,19.98771c-2.22757,11.59705 -6.10599,22.84374 -8.19046,34.46736c-0.09465,0.52779 -4.77883,39.12695 -4.9055,40.10526c-2.17792,16.82158 -5.19477,32.95209 -6.0843,49.93217c-0.871,16.62662 0.57634,33.37799 -0.00076,50.01797c-0.10714,3.08916 -0.33982,6.17414 -0.55473,9.25935h-150.21931c0.49311,-1.18334 0.76541,-2.48175 0.76541,-3.84376c0,-2.72545 -1.09032,-5.19625 -2.85857,-7c1.76825,-1.80375 2.85857,-4.27455 2.85857,-7c0,-0.20133 -0.00595,-0.40127 -0.01768,-0.59966c0.65173,-1.32785 1.01768,-2.82135 1.01768,-4.40034c0,-2.76653 -1.12343,-5.27067 -2.93898,-7.0811c1.21887,-1.65721 1.93898,-3.70396 1.93898,-5.9189c0,-1.71775 -0.43311,-3.33434 -1.19607,-4.74652c1.37406,-1.71253 2.19607,-3.88701 2.19607,-6.25348c0,-2.559 -0.96121,-4.8935 -2.54227,-6.66215c0.97684,-1.54455 1.54227,-3.37517 1.54227,-5.33785c0,-1.8805 -0.51907,-3.63977 -1.42174,-5.14234c0.24337,-0.56436 0.48675,-1.12872 0.73013,-1.69307c4.37035,-6.83116 8.20578,-12.8395 8.25356,-12.99805c0.02353,-0.07809 0.04656,-0.15627 0.06909,-0.23452l0.0514,0.02937l3.91287,-6.84752c0.89216,-1.4963 1.4047,-3.24524 1.4047,-5.11387c0,-1.57693 -0.365,-3.0686 -1.01513,-4.39515c1.8041,-4.22803 3.60859,-8.45589 5.40157,-12.68864c2.42096,-5.71524 5.56503,-11.18074 7.22652,-17.16108c1.89454,-6.81915 2.25589,-13.97396 3.36558,-20.96386c2.09058,-13.16842 4.13247,-26.34452 6.19871,-39.51678c1.03312,-6.58613 2.06624,-13.17226 3.09936,-19.75839c0.02634,-0.16794 0.05272,-0.33588 0.07912,-0.50382c30.82521,0.16554 61.66833,0.99397 92.48804,1.4428z" fill="#3acfff" stroke="none" stroke-width="0" stroke-linecap="butt"/><path d="M-25.0645,-29.83185l5.19833,-6.9311c1.29245,-1.68494 2.0606,-3.79317 2.0606,-6.08081c0,-2.71997 -1.08593,-5.1863 -2.84789,-6.98909c0.00072,-0.008 0.00144,-0.016 0.00215,-0.02401c0.30279,-0.31 0.5856,-0.63959 0.84633,-0.98671l0.48625,0.16208l0.92618,-2.77856c0.37994,-1.0568 0.58698,-2.19608 0.58698,-3.38372c0,-0.44838 -0.0295,-0.88987 -0.08669,-1.32263l2.0318,-2.17693c0.03961,7.42289 0.05105,14.84602 0.05397,22.27319c-3.23303,3.2824 -6.46803,6.56235 -9.74818,9.79313c0.16319,-0.51696 0.32674,-1.03579 0.49017,-1.55485z" fill="#3acfff" stroke="none" stroke-width="0" stroke-linecap="butt"/><path d="" fill="#3acfff" stroke="none" stroke-width="0" stroke-linecap="butt"/><path d="M22.81489,-174.25956c2.7527,-0.32385 5.49789,-0.775 8.24393,-1.21056c-0.81157,5.26775 -1.61957,10.53607 -2.44552,15.8015c-2.06624,13.17226 -4.15837,26.34048 -6.19871,39.51678c-0.95733,6.18232 -1.16546,12.5233 -2.83313,18.55292c-1.4356,5.19055 -4.28028,9.88387 -6.40106,14.83413c-2.62533,6.12797 -5.22483,12.26699 -7.83724,18.40048c-0.41131,0.96568 -0.82316,1.93119 -1.23549,2.89654c-0.05628,-7.85271 -0.14859,-15.70609 -0.29962,-23.56457c-0.08433,-4.38805 0.00894,-8.78912 0.06397,-13.18751c0.97468,-1.58871 1.79253,-3.08847 2.39907,-4.45516l11.13191,-16.45587c1.12923,-1.6195 1.79144,-3.58886 1.79144,-5.71289c0,-5.52285 -4.47715,-10 -10,-10c-2.76142,0 -5.26142,1.11929 -7.07107,2.92893l-1.273,1.273c-0.53995,-2.57093 -1.08808,-5.14057 -1.57479,-7.71982l-0.25776,-1.35323c0,0 -1.87112,-9.82339 -11.69451,-7.95226c-9.82339,1.87112 -7.95226,11.69451 -7.95226,11.69451l0.25776,1.35323c1.20646,6.27035 2.81666,12.47634 3.61937,18.81104c0.19873,1.56827 0.24879,3.14704 0.24579,4.72961c-1.15048,1.37411 -2.30083,2.74834 -3.45102,4.12269c-1.64462,-1.18776 -3.66483,-1.88769 -5.84852,-1.88769c-0.6116,0 -1.21038,0.05491 -1.79168,0.16005c-1.27685,-1.01248 -2.80679,-1.71964 -4.4795,-2.01116c0.21633,-0.55682 0.43202,-1.11388 0.64699,-1.67122c0.54651,-1.41696 1.40803,-2.78654 1.49875,-4.30253l6.4939,-18.66998c0.40829,-1.09077 0.63154,-2.2719 0.63154,-3.50517c0,-5.52285 -4.47715,-10 -10,-10c-0.19061,0 -0.37998,0.00533 -0.56796,0.01586c0.79234,-3.88364 1.51737,-7.78364 2.29609,-11.66631l0.70054,-3.50268c10.08248,-1.18151 20.16352,-2.37527 30.24528,-3.56283c-0.17784,2.7915 -0.24818,5.5809 -0.36389,8.29348l-0.01148,-0.00287l-1.94561,7.78244c-0.23011,0.84188 -0.35296,1.72805 -0.35296,2.64291c0,5.52285 4.47715,10 10,10c4.49839,0 8.30305,-2.97024 9.55975,-7.05648l1.92708,-5.78124l-0.43351,-0.1445l0.12862,-0.5145l0.63414,-0.59422c0.00711,-0.10917 0.01615,-0.52122 0.03241,-1.16279c1.65926,-0.48895 1.0378,-3.78977 1.63834,-5.58399l0.51317,-5.16228c0,0 0,-2.28185 -1.09001,-4.66552c0.02121,-0.14765 0.04285,-0.29403 0.06492,-0.43903c0.88185,-0.10375 1.7637,-0.20749 2.64555,-0.31124z" fill="#3acfff" stroke="none" stroke-width="0" stroke-linecap="butt"/><path d="M-138.6531,-223.67215c2.88545,-0.67963 5.77089,-1.35926 8.65634,-2.03889c17.75807,-0.4401 35.51601,-0.88691 53.27387,-1.33632c-2.07327,0.88357 -3.78714,2.44722 -4.86143,4.41075l-2.39821,4.19687c-0.89527,-0.26296 -1.84268,-0.40403 -2.82304,-0.40403c-3.36989,0 -6.35045,1.66689 -8.16216,4.22113l-11.68864,16.07187c-4.55775,4.86532 -7.84229,10.78315 -11.76343,16.17472c-3.92114,5.39157 -7.84229,10.78315 -11.76343,16.17472c-6.8278,9.38822 -13.6556,18.77645 -20.4834,28.16467c-0.07544,-6.94455 -0.13894,-13.88292 -0.13894,-20.80712c0,-20.56812 0.23045,-41.07584 -0.43097,-61.59539c4.19141,-1.09402 8.37263,-2.24119 12.58343,-3.23299z" fill="#3acfff" stroke="none" stroke-width="0" stroke-linecap="butt"/><path d="M-186,-214.57209c4.36062,-0.48677 8.71315,-1.01034 13.05081,-1.59299c0.08629,1.11334 0.14362,2.22198 0.14362,3.32132c0,13.33333 -0.00056,26.66667 0,40c0.00088,20.93473 0.78418,41.84181 1.57732,62.75599c-6.40236,8.70469 -15.48495,22.16469 -12.93888,25.75984c2.98521,4.21524 7.85673,6.14139 13.14214,7.4787c-0.84073,18.12978 -2.69704,36.31972 -3.963,54.40482c-0.45196,6.45655 -0.77242,12.92488 -1.15372,19.38772c-3.30628,7.18466 -6.59408,14.37782 -9.85829,21.58194z" fill="#3acfff" stroke="none" stroke-width="0" stroke-linecap="butt"/><path d="M7.7761,-229.18908c3.95532,0.85128 7.91393,1.69112 11.87623,2.51839c-0.89407,2.4066 -1.87029,5.12192 -2.83129,7.84059c-0.72611,0.1219 -1.45222,0.24379 -2.17833,0.36565c-13.14943,2.2069 -26.29885,4.41379 -39.44828,6.62069c-6.57471,1.10345 -13.17437,2.06736 -19.72414,3.31034c-2.76586,0.52489 -6.02489,0.21268 -8.20778,1.99045c-1.40529,1.14448 -2.72016,2.38381 -3.97608,3.68498c-1.36494,-3.36717 -2.91213,-6.712 -3.92972,-10.12172l-2.60252,-7.80757c-0.9183,-2.98592 -3.19711,-5.37594 -6.11295,-6.44658c25.71168,-0.65163 51.42324,-1.30752 77.13487,-1.95521z" fill="#3acfff" stroke="none" stroke-width="0" stroke-linecap="butt"/><path d="M-134.12844,-119.60196c-3.44133,3.96275 -10.84084,12.00562 -16.31577,19.11359c0.00896,-1.27163 0.01521,-2.54353 0.01905,-3.81566c0.36748,-0.54373 0.74196,-1.08117 1.12634,-1.60969c3.92114,-5.39157 7.84229,-10.78315 11.76343,-16.17472c10.18936,-14.01036 20.37871,-28.02073 30.56807,-42.03109c-0.97018,3.23844 -1.93902,6.47728 -2.91044,9.71534c-1.13844,3.79479 -2.28491,7.58719 -3.42509,11.38146c-6.94786,7.83277 -14.01214,15.57497 -20.8256,23.42078z" fill="#3acfff" stroke="none" stroke-width="0" stroke-linecap="butt"/><path d="M-77.49466,-129.19589c0.74016,-1.58747 1.10691,-3.30381 1.39718,-5.0457c1.21776,-2.34235 2.43529,-4.68482 3.65306,-7.02716c-0.24589,3.24047 -0.49179,6.48094 -0.73768,9.72141c-1.34707,1.11627 -2.39654,2.57911 -3.01174,4.25182l-5.90236,14.96669c-2.90544,7.36737 -5.96087,14.72706 -8.99441,22.10469c-0.46479,-1.90348 -1.47442,-3.59336 -2.85426,-4.89503l2.16595,-9.74678c0.25288,-0.45641 0.50885,-0.91144 0.76671,-1.36561c5.89471,-9.90621 13.07287,-22.01058 13.51755,-22.96434z" fill="#3acfff" stroke="none" stroke-width="0" stroke-linecap="butt"/><path d="M-145.42474,-68.82864c-1.35064,2.86666 -2.70083,5.73348 -4.05024,8.60063c-0.17545,-4.30488 -0.35388,-8.6101 -0.53273,-12.91556c0.10588,-0.05978 0.20957,-0.12491 0.31089,-0.19569c2.49838,-1.74525 7.17625,-6.56533 12.21504,-12.09239c-2.66844,5.53109 -5.33161,11.06056 -7.94296,16.60301z" fill="#3acfff" stroke="none" stroke-width="0" stroke-linecap="butt"/><path d="M-73.95131,-193.83937c-0.38664,0.39488 -0.74081,0.82168 -1.05819,1.27607l-1.32031,1.84151c0.06289,-0.22934 0.12572,-0.45869 0.1885,-0.68806c0.78956,-1.1313 1.50463,-2.29218 1.93526,-3.57465c0.10131,0.37893 0.18708,0.76049 0.25474,1.14512z" fill="#3acfff" stroke="none" stroke-width="0" stroke-linecap="butt"/><path d="M411,-326v63.15623h-10.80557c-6.54959,-1.24389 -13.33333,0 -20,0c-11,0 -31.70627,0 -42.70627,0c-4.64636,-4.00402 -10.76587,-0.94427 -10.76587,-0.94427l-3.80623,1.90312c-3.38246,1.60344 -5.72163,5.04913 -5.72163,9.04116c0,0.2507 0.00923,0.49925 0.02736,0.74532c-4.01134,0.35757 -8.02305,0.69391 -12.03506,1.00395c-3.24974,-8.05757 -6.26919,-15.52553 -6.6984,-16.58357c-2.15019,-5.30028 -3.72213,-10.8778 -6.47969,-15.88901c-7.08721,-12.87935 -9.36511,-14.75278 -17.14883,-23.1217c-4.48656,0.2316 -10.33414,-2.53225 -13.45969,0.69479c-1.02337,1.05661 -2.51967,4.07779 -4.21043,8.07453c-0.04981,-1.46771 -0.73428,-9.79185 -9.85112,-9.92327c-9.99896,-0.14414 -10.1431,9.85482 -10.1431,9.85482l-0.0058,1.14414c-2.46776,0.00115 -4.72651,0.89618 -6.47,2.37888l-12.00716,10.07072l0.52919,0.63095l-1.95197,0.83465c-0.29052,0.58458 -0.59148,1.16529 -0.90035,1.74307c-7.56051,6.48648 -16.19411,14.02273 -16.71729,14.31481c-5.2752,2.9451 -11.51437,3.66435 -17.2572,5.54083c-10.32359,3.37325 -20.63081,6.79894 -30.93479,10.23429c-33.88389,-0.0822 -67.7677,0.01373 -101.62391,0.84969c-13.44617,0.332 -26.89235,0.66401 -40.33852,0.99601c-6.8614,-1.46724 -13.71829,-2.96034 -20.57091,-4.4768c9.37948,-2.20922 18.75897,-4.41843 28.13845,-6.62765c19.58781,-4.61366 39.79939,-8.30969 59.11289,-13.95121c10.10991,-2.95313 19.58128,-7.76523 29.36689,-11.66047c18.57824,-7.39522 37.23861,-14.61919 55.74585,-22.1901c7.04141,-2.88049 14.76865,-4.5269 21.05174,-8.81659c3.16276,-2.15932 5.01255,-5.71021 7.06876,-9.02732z" fill="#3acfff" stroke="none" stroke-width="0" stroke-linecap="butt"/><path d="M-186,-326h338.00566c-11.79471,4.57561 -23.50118,9.37648 -35.25543,14.05536c-12.38797,4.93113 -24.78039,9.85109 -37.1639,14.7934c-3.13409,1.25083 -6.15446,2.82989 -9.39556,3.76924c-18.8596,5.46599 -38.57531,9.05799 -57.69084,13.56041c-22.61439,5.32653 -45.22878,10.65306 -67.84317,15.97959c-43.68444,-10.26255 -87.21571,-21.26163 -130.65676,-32.35094z" fill="#3acfff" stroke="none" stroke-width="0" stroke-linecap="butt"/><path d="M397.14791,-225.57158c-7.66847,12.95707 -15.49589,25.84283 -23.12956,38.83063c-7.75594,-0.39902 -15.51102,-0.80776 -23.26556,-1.22634c1.60241,-4.37968 3.68075,-8.65304 4.3098,-13.25804c0.34667,-2.53783 0.14582,-22.39408 -0.00952,-34.59208c15.89188,-1.74235 31.77392,-3.58148 47.63997,-5.19498l3.81751,-0.38822c-3.12068,5.27647 -6.24039,10.5535 -9.36264,15.82903z" fill="#3acfff" stroke="none" stroke-width="0" stroke-linecap="butt"/><path d="M-118.30446,-258.98487c6.90968,1.69711 13.81611,3.39647 20.7215,5.09189c-2.24028,0.52767 -4.48056,1.05534 -6.72084,1.58301c-9.28092,2.186 -18.56183,4.372 -27.84275,6.558c-5.97878,0.14762 -11.95756,0.29525 -17.93633,0.44287c-0.80629,0.01991 -1.61258,0.03982 -2.41887,0.05973c-0.10127,-1.60968 -0.20255,-3.21935 -0.30382,-4.82903v-2.76536c0,-5.52285 -4.47715,-10 -10,-10c-5.52285,0 -10,4.47715 -10,10v8.09572c-4.39814,0.1086 -8.79628,0.21719 -13.19443,0.32579v-31.23087c22.53314,5.68242 45.12708,11.12513 67.69554,16.66826z" fill="#3acfff" stroke="none" stroke-width="0" stroke-linecap="butt"/><path d="M124.33156,-195.67778c-23.19574,-0.3378 -46.42524,-1.02846 -69.63171,-1.14457c0.28707,-1.45746 0.71449,-2.9257 0.48824,-4.37736c-0.19162,-1.22947 -0.40986,-2.45393 -0.6479,-3.67464c7.52887,-1.26308 15.05743,-2.52795 22.58528,-3.797c5.54031,-0.93399 11.13914,-1.58116 16.65273,-2.64747c26.31254,5.44856 52.62508,10.89711 78.93763,16.34567c-16.12808,-0.23488 -32.25617,-0.46975 -48.38425,-0.70463z" fill="#3acfff" stroke="none" stroke-width="0" stroke-linecap="butt"/><path d="M-39.11097,-187.1121c-1.92219,0.2281 -3.88994,0.29578 -5.86523,0.33714c0.67945,-0.80835 1.37777,-1.60041 2.10255,-2.36961c0.38585,-0.40949 1.09702,0.41283 1.65429,0.33528c6.60304,-0.91889 13.14943,-2.2069 19.72414,-3.31034c10.22012,-1.71526 20.44023,-3.43053 30.66035,-5.14579c-0.93981,1.64055 -1.98681,3.22486 -3.00249,4.82436c-15.09186,1.77079 -30.18413,3.53836 -45.27361,5.32897z" fill="#3acfff" stroke="none" stroke-width="0" stroke-linecap="butt"/><path d="M35.20076,-200.48782c0.09064,0.44391 -0.31473,0.85545 -0.38876,1.30242c-0.16934,1.02244 -0.33732,2.04509 -0.5041,3.06794c-1.33263,0.17404 -2.66403,0.36865 -3.99497,0.57052c0.64562,-1.8281 1.20516,-3.69197 1.75509,-5.56041c0.96733,-0.16213 1.93465,-0.32424 2.90198,-0.48636c0.07844,0.36829 0.15541,0.7369 0.23075,1.10588z" fill="#3acfff" stroke="none" stroke-width="0" stroke-linecap="butt"/><path d="M197.82396,-213.35248c-0.42816,0.96343 -0.86625,1.92387 -1.30841,2.88327c-21.31662,-4.41405 -42.63323,-8.82809 -63.94985,-13.24214c7.4089,-2.45911 14.81781,-4.91823 22.22671,-7.37734c16.90489,0.04678 33.80959,0.13369 50.71064,0.19041c-0.10215,0.85874 -0.21059,1.71704 -0.32254,2.5751c-2.62619,4.90622 -5.09885,9.89049 -7.35656,14.97071z" fill="#3acfff" stroke="none" stroke-width="0" stroke-linecap="butt"/><path d="M346.48158,-133.06047c-5.62511,11.45476 -11.34337,22.87481 -17.02299,34.31385c1.25323,-3.1037 2.50384,-6.20845 3.74389,-9.31743c2.60764,-6.53772 6.26744,-12.75965 7.75995,-19.63817c0.16689,-0.76913 1.11792,-19.93974 1.70744,-32.06982c4.11901,0.85651 9.58598,1.98838 14.98159,3.08755c-3.78147,7.88252 -7.37278,15.89174 -11.16988,23.62402z" fill="#3acfff" stroke="none" stroke-width="0" stroke-linecap="butt"/><path d="M327.01116,-231.41321c-1.13072,2.0134 -1.67512,4.30894 -2.34049,6.52018c-0.76177,2.53159 -1.48848,5.0734 -2.20052,7.61948c-0.13437,-1.1515 -0.26275,-2.30342 -0.37904,-3.45618l-1.18277,-11.61266c2.22039,-0.20085 4.44067,-0.40809 6.66083,-0.62083z" fill="#3acfff" stroke="none" stroke-width="0" stroke-linecap="butt"/><path d="M217.51846,-121.37841l-0.50778,1.77724c-0.81377,-0.04877 -1.62248,-0.11527 -2.419,-0.22441c-4.60213,1.02106 -9.43796,0.87947 -14.09817,1.5388c-1.0329,-0.36083 -2.14308,-0.55698 -3.29908,-0.55698c-0.66611,0 -1.317,0.06513 -1.94666,0.18936c1.71457,-8.15296 6.34452,-24.9064 7.757,-32.25101c1.28324,-6.67259 2.1385,-13.42043 3.18654,-20.13398c0.17804,-1.14048 0.32566,-2.2876 0.46082,-3.43742c4.85115,0.07065 9.70229,0.1413 14.55344,0.21194c-0.40305,1.83047 -0.73234,3.32918 -0.94955,4.31298l0.32069,1.10813h-0.38228v17c0,2.3751 0.82802,4.55681 2.21114,6.2722c-0.44885,6.1974 -2.22248,13.00269 -1.15866,18.68791c-1.80528,1.33766 -3.14425,3.2689 -3.72845,5.50524z" fill="#3acfff" stroke="none" stroke-width="0" stroke-linecap="butt"/><path d="M246.34769,-148.28288c0.62254,3.68474 0.90576,7.46105 1.43163,11.1732c-3.48851,1.49353 -7.15961,4.89513 -9.28976,2.42625c-2.85082,-3.30415 3.10294,-8.19838 3.97176,-12.47503c0.63575,-3.12941 -0.31878,-6.48167 0.50609,-9.56664c0.1021,-0.38184 0.20951,-0.76195 0.32171,-1.14048l0.92815,-2.37193c0.05147,0.0386 0.10294,0.0772 0.15442,0.11581c0.65221,3.94735 1.3095,7.89385 1.97601,11.83882z" fill="#3acfff" stroke="none" stroke-width="0" stroke-linecap="butt"/><path d="M233.23107,-229.69902c-0.01093,0.27762 0.09989,1.23426 0.30009,2.68349l-6.0781,10.36853c-1.5175,1.9804 -2.9054,3.99962 -4.07473,6.01808c0.73115,-4.15794 1.33135,-8.34487 1.78923,-12.54719c1.4367,-2.57751 2.9138,-5.13319 4.42233,-7.66933c1.24347,0.00089 2.48691,0.00144 3.73032,0.00162c-0.04375,0.37913 -0.07402,0.76064 -0.08914,1.14481z" fill="#3acfff" stroke="none" stroke-width="0" stroke-linecap="butt"/><path d="M237.54099,-115.85884l-0.34656,0.5737v-2.56546c0.67296,-0.05073 1.34936,-0.10631 2.02539,-0.15941c-0.65249,0.63514 -1.21854,1.35864 -1.67884,2.15117z" fill="#3acfff" stroke="none" stroke-width="0" stroke-linecap="butt"/><path d="M270.06898,-275.66862c0.31707,-1.09968 0.7383,-2.21822 1.17436,-3.34562c1.1278,1.58016 2.19909,3.19532 3.13688,4.89379c2.41698,4.37753 3.69852,9.2919 5.56327,13.93164c1.27734,3.17819 2.58289,6.3453 3.89647,9.50923c-3.21608,-0.08019 -6.43231,-0.16419 -9.64553,-0.16419c-4.17293,0 -8.34587,0 -12.5188,0c3.0179,-8.20439 5.97308,-16.43059 8.39336,-24.82486z" fill="#3acfff" stroke="none" stroke-width="0" stroke-linecap="butt"/><path d="M276.07926,-200.35707c-0.29943,-1.40874 -0.63803,-2.80772 -1.0039,-4.19992c2.82937,-1.13476 5.69646,-2.19585 8.46442,-3.45916c0.53684,-0.24502 0.879,-0.92901 1.46564,-0.99296c1.58837,-0.17315 3.30678,0.21982 4.9594,0.41102c-1.10926,4.33706 -2.32529,10.88123 -3.38892,16.77775c-3.40919,-0.70594 -6.81839,-1.41189 -10.22758,-2.11783c0.04939,-2.15586 0.17651,-4.3226 -0.26906,-6.41889z" fill="#3acfff" stroke="none" stroke-width="0" stroke-linecap="butt"/><path d="M275.26373,-226.22349c-1.93692,0.87799 -3.90324,1.70446 -5.87088,2.52981l-2.07583,-7.15009c2.29247,0 4.58494,0 6.87741,0c5.96444,0 11.93849,0.26294 17.90406,0.29051c0.09054,0.22948 0.1809,0.45903 0.27107,0.68866c-6.08298,-0.72656 -10.76749,0.76797 -17.10583,3.64111z" fill="#3acfff" stroke="none" stroke-width="0" stroke-linecap="butt"/><path d="M276.76673,-172.05196c-0.00137,-0.06433 -0.00273,-0.12866 -0.00409,-0.19298c1.37801,0.08843 2.75602,0.1768 4.13407,0.26463c-1.39632,2.4933 -2.88153,4.95032 -3.98438,7.55487c-0.04199,-2.54241 -0.09164,-5.08463 -0.14559,-7.62652z" fill="#3acfff" stroke="none" stroke-width="0" stroke-linecap="butt"/><path d="M277.04539,-150.62187c-0.00107,-0.80546 -0.00352,-1.61092 -0.00723,-2.41639c0.14686,0.94327 0.18815,1.77924 0.00723,2.41639z" fill="#3acfff" stroke="none" stroke-width="0" stroke-linecap="butt"/><path d="M369.73114,-117.86116c-0.86121,-2.72445 -2.85761,-4.94448 -5.43414,-6.10501c0.0456,-0.09283 0.09119,-0.18565 0.13678,-0.27848c4.5898,-9.34651 8.88248,-19.16787 13.59854,-28.62888c6.14071,-0.31609 12.43091,-2.73477 18.48643,-6.02429l14.48125,-4.965v14.69205c-1.78491,-1.65865 -4.17679,-2.67299 -6.80557,-2.67299c-3.85173,0 -7.19485,2.17765 -8.86533,5.36894l-8.73128,15.92175c-0.76987,-0.18993 -1.57486,-0.29069 -2.40338,-0.29069c-3.52613,0 -6.626,1.82504 -8.40654,4.58205l-1.78566,2.67849c-0.18091,0.20079 -1.90448,2.51984 -4.27109,5.72206z" fill="#3acfff" stroke="none" stroke-width="0" stroke-linecap="butt"/><path d="M411,-209.72741v24.81544l-1.39783,-0.06656c-4.33753,-0.20655 -8.67464,-0.41609 -13.01138,-0.62865c4.7889,-8.04938 9.619,-16.07599 14.40921,-24.12023z" fill="#3acfff" stroke="none" stroke-width="0" stroke-linecap="butt"/><path d="" fill="#3acfff" stroke="none" stroke-width="0" stroke-linecap="butt"/><path d="" fill="#3acfff" stroke="none" stroke-width="0" stroke-linecap="butt"/><path d="" fill="#3acfff" stroke="none" stroke-width="0" stroke-linecap="butt"/><path d="" fill="#3acfff" stroke="none" stroke-width="0" stroke-linecap="butt"/><text transform="translate(28.19443,24.90624) scale(0.78169,0.78169)" font-size="40" xml:space="preserve" fill="#000000" fill-rule="nonzero" stroke="none" stroke-width="1" stroke-linecap="butt" stroke-linejoin="miter" stroke-miterlimit="10" stroke-dasharray="" stroke-dashoffset="0" font-family="Sans Serif" font-weight="normal" text-anchor="start" style="mix-blend-mode: normal"><tspan x="0" dy="0">Updates</tspan></text><path d="M26.23885,-144.57723l-1.04442,-6.26653" fill="none" stroke="#000000" stroke-width="0.5" stroke-linecap="round"/><path d="M14.19443,-112.84376l0.16419,23.47908" fill="none" stroke="#000000" stroke-width="1.5" stroke-linecap="round"/><path d="M14.71381,-38.57243l0.12644,18.08132" fill="none" stroke="#000000" stroke-width="1.5" stroke-linecap="round"/><path d="M14.87633,-15.33192l0.13695,19.58359" fill="none" stroke="#000000" stroke-width="1.5" stroke-linecap="round"/><path d="M15.03895,7.92243l0.15548,22.23381" fill="none" stroke="#000000" stroke-width="1.5" stroke-linecap="round"/><path d="M27.19442,-68.61801v6.76187" fill="none" stroke="#000000" stroke-width="2" stroke-linecap="round"/><path d="M27.19442,-61.83139v89.98764" fill="none" stroke="#000000" stroke-width="2" stroke-linecap="round"/><path d="M170.19443,-101.84376v22.35369" fill="none" stroke="#000000" stroke-width="2" stroke-linecap="round"/><path d="M155.19443,-102.84376v130" fill="none" stroke="#000000" stroke-width="2" stroke-linecap="round"/></g></g></svg>