<svg version="1.1" xmlns="http://www.w3.org/2000/svg" xmlns:xlink="http://www.w3.org/1999/xlink" width="781.68057" height="711.03125" viewBox="0,0,781.68057,711.03125"><g transform="translate(370.68056,326.00001)"><g data-paper-data="{&quot;isPaintingLayer&quot;:true}" fill-rule="nonzero" stroke-linejoin="miter" stroke-miterlimit="10" stroke-dasharray="" stroke-dashoffset="0" style="mix-blend-mode: normal"><path d="M411.00001,-326v217.25917c-3.40578,-0.80078 -6.75277,-1.76957 -9.94445,-3.18497c-1.29001,-0.57207 1.93045,-2.14454 2.43722,-3.46157c1.51977,-3.94962 0.55387,-10.92424 0.28422,-14.969c-0.57691,-8.65359 -9.62826,-15.80119 -17.43225,-18.19017c-2.79951,-0.857 -5.78796,-0.92364 -8.63547,-1.60437c-2.03935,-0.48753 -3.98063,-1.82377 -6.0676,-2.29673c-6.74896,-1.52946 -20.28173,-3.52757 -27.74736,-1.15214c-8.47201,2.69564 -8.86437,7.48259 -19.41965,7.21477c-17.79429,-0.4515 -35.55271,-1.83877 -53.32361,-2.85662c-3.35624,-0.19224 -6.79223,0.03417 -10.0555,-0.7735c-11.62845,-2.87808 -22.95854,-6.85011 -34.44786,-10.24125c-11.6178,-3.42907 -23.85902,-5.70771 -35.50277,-8.39637c-3.68323,-0.85049 -27.25102,-6.93682 -40.51152,-9.30006c-5.7997,-1.0336 -15.82485,-0.95392 -20.66157,-2.09909c-11.61518,-2.75008 -22.8815,-6.80723 -34.32414,-10.20448c-13.98189,-4.15113 -28.22562,-8.09132 -42.25623,-12.07469c-12.30314,-3.49293 -24.94894,-5.64221 -37.44476,-8.36658c-7.17382,-1.56405 -13.05913,-2.39028 -18.65576,-2.45124c2.27105,-37.61547 4.49193,-75.23429 6.73615,-112.85111z" fill="#3acfff" stroke="none" stroke-width="0" stroke-linecap="butt"/><path d="M97.05566,-114.20516c-0.64693,-0.86356 -1.25877,-1.73912 -1.80105,-2.63842l-6.06558,14.29143c-0.01144,-0.0093 -0.02287,-0.01857 -0.03431,-0.02779c0.00469,-1.39733 0.00947,-2.79467 0.01447,-4.192c0.00841,-2.35131 0.37785,-4.72919 0.02523,-7.05393c-0.62181,-4.09934 0.49652,-9.75279 -2.92892,-12.08896c-13.57678,-9.25948 -22.14707,-0.178 -27.879,10.33605c-3.42991,6.29148 -4.90783,13.46484 -7.33622,20.20649c-0.03146,0.08734 -0.57185,1.59934 -1.41971,3.97267c0.3701,-4.88926 0.60922,-9.79018 0.96339,-14.68085l-7.68973,-18.61604c-3.71846,5.87665 -7.89739,11.49733 -11.61518,17.37435l-0.64426,-0.18325c-0.03195,0.45405 -0.06289,0.9082 -0.093,1.36242c-0.50108,0.81132 -0.99232,1.62811 -1.47134,2.4517c-2.18836,-1.0995 -4.48516,-1.90842 -6.76421,-2.35753c0.16788,-4.70634 0.2883,-8.09939 0.29949,-8.41254l-7.85774,-26.25941c-5.55774,8.78676 -12.12686,17.01008 -16.67321,26.36028c-1.30596,2.6859 -2.17694,5.53822 -2.90523,8.44514l-4.86348,4.89478c0.43996,-6.94032 0.88111,-13.88054 1.3241,-20.82063c0.87002,-13.63057 1.72563,-27.26214 2.57033,-40.89447c4.15255,-0.00315 8.3203,0.4158 12.40126,1.18328c29.69215,5.58397 44.94796,10.53994 74.91535,19.26086c11.58805,3.37228 23.35429,6.21708 34.70506,10.31772c1.00389,0.36267 -1.9821,0.79568 -2.99284,1.13879c-1.31649,0.44689 -3.82653,1.06124 -4.60039,1.75046c-1.40784,1.25386 -1.99831,3.21944 -3.25266,4.62684c-1.25435,1.4074 -3.13929,2.21928 -4.22351,3.76157c-0.56694,0.80646 -0.80744,2.63593 -1.06119,4.02676z" fill="#3acfff" stroke="none" stroke-width="0" stroke-linecap="butt"/><path d="M-185.99998,-326h117.232c-5.0687,28.65071 -10.41266,57.25957 -15.68672,85.87387c-8.54223,2.89684 -14.22573,11.88863 -20.83675,18.24495c-7.43324,7.14687 -18.43272,23.28034 -24.30307,31.44878c-0.66125,0.92073 -1.32251,1.84145 -1.98376,2.76218c-1.85145,1.7178 -3.66848,3.47133 -5.43106,5.28134c-2.25924,2.32005 -3.50351,5.44734 -5.23687,8.18272c-2.41449,3.81026 -4.81776,7.6276 -7.22118,11.44485c-8.93122,12.43588 -17.86245,24.87175 -26.79367,37.30763c-3.24445,4.51759 -6.50009,9.02717 -9.73891,13.54879z" fill="#3acfff" stroke="none" stroke-width="0" stroke-linecap="butt"/><path d="M-18.33967,-286.82922l-3.59229,-22.07394c-8.2384,5.78042 -17.04356,10.82739 -24.71521,17.34124c-3.91569,3.32474 -7.06905,6.61201 -9.82495,9.98543c2.71586,-14.80054 5.40231,-29.60622 8.01207,-44.42352h32.45163c-0.77877,13.05676 -1.55483,26.11377 -2.33124,39.17078z" fill="#3acfff" stroke="none" stroke-width="0" stroke-linecap="butt"/><path d="M-54.79149,-247.76332c3.37955,-5.40504 6.27687,-11.14116 10.12199,-16.22554c2.02215,-2.67387 4.60537,-4.91625 7.05654,-7.24861c-0.66067,10.57063 -1.68565,26.97048 -1.88958,30.23327c-6.91855,2.24976 -13.84333,4.48818 -19.72367,8.63329c-3.64497,2.56938 -5.99231,6.44448 -8.23451,10.42336c0.48128,-2.62856 0.96365,-5.257 1.44682,-7.88536c3.74309,-5.97537 7.4843,-11.95192 11.22241,-17.9304z" fill="#3acfff" stroke="none" stroke-width="0" stroke-linecap="butt"/><path d="M-51.74959,-168.90084c-2.59352,12.31924 -5.18705,24.6385 -7.78057,36.95774c-3.72639,7.40864 -7.41171,14.86452 -11.26696,22.2025c2.30294,-13.2352 4.57058,-26.47664 6.76966,-39.73189c5.06677,-11.29446 9.96121,-22.68226 15.04385,-33.92894c0.17704,-0.39174 0.35408,-0.78349 0.53112,-1.17524c-1.0987,5.22535 -2.19707,10.45076 -3.29709,15.67582z" fill="#3acfff" stroke="none" stroke-width="0" stroke-linecap="butt"/><path d="M-115.47101,-110.14233c-2.35261,5.77389 -4.21597,11.76812 -7.01748,17.33805c-1.18418,2.35439 -3.24618,4.15274 -4.84533,6.24753c-2.61611,3.42695 -5.21881,6.8641 -7.8211,10.30155c0.34814,-1.47229 0.70564,-2.94163 1.09027,-4.40242c1.38127,-5.24589 2.82291,-10.49461 4.28059,-15.74832c7.17318,-10.48712 14.35294,-20.96971 21.55057,-31.43985c-2.4181,5.8989 -4.83192,11.79953 -7.23752,17.70345z" fill="#3acfff" stroke="none" stroke-width="0" stroke-linecap="butt"/><path d="M-178.68899,-78.92448c7.02874,-11.14557 14.05748,-22.29113 21.08622,-33.4367c-5.75039,11.20302 -11.48872,22.40975 -17.30472,33.56371c-3.69398,7.08436 -7.39674,14.16414 -11.0925,21.24757v-9.57853c2.47517,-3.90695 4.84383,-7.88384 7.31099,-11.79605z" fill="#3acfff" stroke="none" stroke-width="0" stroke-linecap="butt"/><path d="" fill="#3acfff" stroke="none" stroke-width="0" stroke-linecap="butt"/><path d="M-158.98382,26.31318c3.28309,-3.30514 6.56225,-6.61424 9.83885,-9.92591c-3.12999,4.20411 -6.25983,8.40833 -9.38942,12.61274h-3.25949c0.95523,-0.87952 1.89866,-1.76929 2.81006,-2.68682z" fill="#3acfff" stroke="none" stroke-width="0" stroke-linecap="butt"/><path d="M-179.60803,-23.91876c0.9202,-2.38969 2.53565,-4.40506 4.19783,-6.39707c-0.44565,1.87724 -0.84008,3.76763 -1.20381,5.66589c-1.20826,1.29557 -2.4135,2.59384 -3.61535,3.89512c-0.06444,-0.19091 -0.12889,-0.38181 -0.19338,-0.5727c0.25749,-0.97461 0.52794,-1.84653 0.81471,-2.59125z" fill="#3acfff" stroke="none" stroke-width="0" stroke-linecap="butt"/><path d="M-97.27073,-179.9731c0.76744,-1.22471 1.53494,-2.44938 2.3025,-3.67401c-0.16911,0.89515 -0.3375,1.79041 -0.50499,2.6858c-4.53787,6.47103 -9.06291,12.95056 -13.57736,19.43716c3.70994,-6.27651 7.90667,-12.26794 11.77986,-18.44895z" fill="#3acfff" stroke="none" stroke-width="0" stroke-linecap="butt"/><path d="" fill="#3acfff" stroke="none" stroke-width="0" stroke-linecap="butt"/><path d="M-123.08751,14.41387c-0.05974,0.05962 -0.11969,0.11904 -0.17984,0.17827c0.06673,-0.09531 0.13344,-0.19064 0.20013,-0.28599c-0.00677,0.03591 -0.01353,0.07181 -0.02029,0.10772z" fill="#3acfff" stroke="none" stroke-width="0" stroke-linecap="butt"/><path d="M-171.50308,4.75443c-0.00289,-0.00835 -0.0058,-0.0167 -0.00869,-0.02504c0.0277,-0.03616 0.05599,-0.0731 0.08487,-0.11081c-0.0254,0.04528 -0.05078,0.09057 -0.07618,0.13585z" fill="#3acfff" stroke="none" stroke-width="0" stroke-linecap="butt"/><path d="M-185.98174,24.87325c-0.00608,0.00712 -0.01216,0.01425 -0.01824,0.02137v-0.07493c0.00608,0.01786 0.01216,0.03571 0.01824,0.05356z" fill="#3acfff" stroke="none" stroke-width="0" stroke-linecap="butt"/><path d="M41.19444,-143.84376l-9,35l-7,-42" fill="none" stroke="#000000" stroke-width="0.5" stroke-linecap="round"/><path d="M313.31467,20.92888h-142.47196c0.32775,-1.06251 0.56122,-2.13794 0.64108,-3.21134c0.36475,-1.46716 0.55834,-3.00194 0.55834,-4.58195c0,-1.85568 -0.26703,-3.64899 -0.76477,-5.3436c0.00066,-0.04623 0.001,-0.09254 0.001,-0.13893c0,-0.66204 -0.06797,-1.30821 -0.19732,-1.9319c0.26938,-1.2386 0.26081,-2.45722 0.0267,-3.61315c0.11686,-0.85032 0.17724,-1.71864 0.17724,-2.60108c0,-0.44724 -0.01551,-0.89086 -0.04602,-1.33034c0.01513,0.00007 0.03027,0.0001 0.04541,0.0001c0.02816,0 0.05628,-0.00012 0.08437,-0.00036c0.63682,0.13514 1.2973,0.20624 1.97439,0.20624c0.38779,0 0.77013,-0.02332 1.1457,-0.06864c0.90872,0.10362 1.75299,0.17762 2.45718,0.25849c6.05303,0.69517 12.4256,1.15752 18.60535,0.2219c2.44058,-0.3695 5.11935,0.98525 7.43806,0.48541c1.40439,-0.30274 2.55273,-0.6437 3.62164,-1.05513c0.56125,0.10374 1.13988,0.15797 1.73116,0.15797c0.52581,0 1.04161,-0.04288 1.54408,-0.12534c0.44219,0.07256 0.89471,0.11447 1.35528,0.12349c0.45405,0.25765 0.86396,0.68139 1.36836,0.80749c1.62691,0.40672 4.9553,-0.97489 6.30515,-0.265c0.83185,0.43748 3.137,0.6587 4.25029,0.69461c3.31059,0.1068 7.37081,-0.96534 10.48994,-0.85478c1.22636,0.04347 2.36075,0.72122 3.71558,0.44302c1.28142,-0.26312 2.59727,-0.45271 3.84052,-0.85141c0.22554,0.00896 0.44936,0.01815 0.67122,0.02791c4.57912,0.20135 8.78647,0.88247 13.48813,0.88247c2.49275,0 5.19836,-0.77499 7.62809,-0.88247c0.29147,-0.0129 0.5862,-0.02325 0.88372,-0.03167c1.87647,0.22283 3.73908,0.50276 5.56655,0.90622c2.83013,0.62483 5.5248,-0.64171 8.26571,-0.66868c7.1644,-0.07048 14.17229,0.19326 21.21332,-0.20588c2.87571,-0.16302 10.02429,0.87149 14.15745,1.04805c-0.17393,7.12826 0.09751,14.3695 0.22906,21.49825z" fill="#3acfff" stroke="none" stroke-width="0" stroke-linecap="butt"/><text transform="translate(173.3073,17.07215) scale(0.59186,0.59186)" font-size="40" xml:space="preserve" fill="#000000" fill-rule="nonzero" stroke="none" stroke-width="1" stroke-linecap="butt" stroke-linejoin="miter" stroke-miterlimit="10" stroke-dasharray="" stroke-dashoffset="0" font-family="Sans Serif" font-weight="normal" text-anchor="start" style="mix-blend-mode: normal"><tspan x="0" dy="0">Speed Mode</tspan></text><path d="M171.79301,-1.74375v11.80068" fill="none" stroke="#000000" stroke-width="2" stroke-linecap="round"/><path d="M171.79301,16.21424v4.0758" fill="none" stroke="#000000" stroke-width="2" stroke-linecap="round"/><text transform="translate(-369.80555,379.15624) scale(0.5,0.5)" font-size="40" xml:space="preserve" fill="#ffef3b" fill-rule="nonzero" stroke="none" stroke-width="1" stroke-linecap="butt" stroke-linejoin="miter" stroke-miterlimit="10" stroke-dasharray="" stroke-dashoffset="0" font-family="Sans Serif" font-weight="normal" text-anchor="start" style="mix-blend-mode: normal"><tspan x="0" dy="0">Wip</tspan></text></g></g></svg>