<svg version="1.1" xmlns="http://www.w3.org/2000/svg" xmlns:xlink="http://www.w3.org/1999/xlink" width="597" height="359.0911" viewBox="0,0,597,359.0911"><g transform="translate(234,326)"><g data-paper-data="{&quot;isPaintingLayer&quot;:true}" fill-rule="nonzero" stroke-linejoin="miter" stroke-miterlimit="10" stroke-dasharray="" stroke-dashoffset="0" style="mix-blend-mode: normal"><path d="M159.66282,29.00001c0.88478,-1.49186 1.39274,-3.2335 1.39274,-5.09377c0,-1.82144 -0.48697,-3.52913 -1.33782,-5c0.85085,-1.47087 1.33782,-3.17856 1.33782,-5c0,-1.61861 -0.38456,-3.14741 -1.06729,-4.5c0.68273,-1.35259 1.06729,-2.88139 1.06729,-4.5c0,-1.82144 -0.48697,-3.52913 -1.33782,-5c0.85085,-1.47087 1.33782,-3.17856 1.33782,-5c0,-1.42221 -0.2969,-2.77508 -0.83209,-4c0.53519,-1.22492 0.83209,-2.57779 0.83209,-4c0,-5.18534 -3.94668,-9.44889 -9,-9.95062c0,-3.68313 0,-7.36626 0,-11.04938c0,-13.13517 0.90522,-26.59001 -0.02516,-39.70889c-0.16101,-2.27022 -0.57829,-4.50209 -1.10082,-6.71899c0.11627,-1.03627 0.8749,-1.93331 0.99685,-2.9703c0.07449,-0.63349 0.24987,-9.63241 0,-11.20364c-0.73654,-4.63148 -2.18263,-9.64015 -5.295,-13.09136c-0.13926,-3.75998 -0.25993,-7.52335 -0.6214,-11.25999c-1.12709,-11.65096 -2.94571,-22.58942 -3.0294,-34.26867l-0.92507,-0.96744v-0.06072l0.70143,-0.17535l-0.94927,-3.79707c-1.01058,-4.45321 -4.99315,-7.77758 -9.75216,-7.77758c-5.52284,0 -10,4.47716 -10,10v11c-0.40663,1.89577 0.19719,25.40512 0.06842,32.86229c-1.24289,-0.55421 -2.61967,-0.86229 -4.06842,-0.86229c-5.04003,0 -9.20921,3.72857 -9.89964,8.57782l-0.81495,5.09346c-0.23709,1.49635 -0.58464,2.99384 -0.97021,4.49173c-1.62633,0.86397 -2.98579,2.16376 -3.92268,3.74363c-0.30231,-0.7124 -0.60363,-1.4252 -0.90348,-2.1386c-3.32269,-8.29751 -6.64199,-16.59639 -9.9802,-24.88768l-1.83286,-6.41501c-1.12211,-4.29547 -5.02886,-7.46535 -9.67597,-7.46535c-3.88746,0 -7.25683,2.21825 -8.91139,5.45802c-0.50919,-1.19601 -1.12885,-2.33852 -1.90132,-3.40693c-0.26673,-0.36892 -0.55054,-0.71951 -0.84959,-1.05371l0.23723,-0.14234l-2.9057,-4.84284c-1.7273,-2.99573 -4.96277,-5.0122 -8.66922,-5.0122c-5.52285,0 -10,4.47716 -10,10c0,1.18764 0.20704,2.32691 0.58698,3.38372l1.90993,5.72979c0.31114,0.97791 0.62442,1.95561 0.93944,2.93316c0.00986,0.22505 0.02694,0.45022 0.05072,0.67548c-2.01486,-4.82003 -3.82797,-9.75879 -6.83662,-13.99403l-8.53337,-17.8425c-1.39882,-3.09481 -4.32714,-5.35025 -7.82102,-5.80241c-1.47776,-6.53646 -1.79455,-13.56733 -5.21876,-19.27876c-3.90662,-6.51608 -8.84243,-16.20889 -16.42876,-15.79827c-7.74964,0.41946 -11.86147,10.57843 -15.33712,17.51764c-1.92692,3.84713 -0.01947,8.60668 0.09785,12.90781c0.00145,0.05328 0.02873,0.74674 0.07525,1.91658c-11.00004,-14.40599 -22.68073,-28.38789 -33.95111,-42.56214c-3.97442,-4.99845 -8.40292,-9.66545 -11.93745,-14.98405c-3.53453,-5.3186 -6.12737,-11.20613 -9.19105,-16.80919l-2.54261,-4.62966c-1.67149,-3.18814 -5.0129,-5.36318 -8.86231,-5.36318c-5.52284,0 -10,4.47716 -10,10c0,1.67958 0.41407,3.26244 1.1457,4.65207l8.71612,17.43225c1.5724,6.35493 5.06094,12.07669 7.59085,18.1151c2.57616,6.14881 5.15404,12.29689 7.73106,18.44534c9.40404,22.43687 18.81278,44.79749 28.59242,67.01426c-2.37394,-1.21452 -6.41638,-3.25598 -11.10544,-5.37582c-1.09913,-3.7812 -11.06492,-38.06508 -11.12424,-38.26061c-0.83753,-2.76067 -1.29002,-5.7143 -2.73508,-8.2112l-6.25163,-18.75491c-1.2567,-4.08624 -5.06136,-7.05648 -9.55975,-7.05648c-5.22462,0 -9.51342,4.00667 -9.96138,9.11498l-0.99892,9.98924c-0.44268,4.56848 -1.12192,9.12347 -1.57541,13.69133c-1.21745,-3.1695 -2.64092,-6.20937 -4.79875,-8.78638c-0.21056,-0.25146 -0.42697,-0.49644 -0.64882,-0.7354l0.12061,-0.08615l-4.92253,-6.89155c-1.80628,-2.59653 -4.81206,-4.29607 -8.2148,-4.29607c-5.52285,0 -10,4.47716 -10,10c0,0.15084 0.00334,0.3009 0.00995,0.4501l0.31763,8.15481c0.47313,12.11196 1.09474,24.26155 1.90249,36.40309c-10.94692,-4.69782 -21.90925,-9.36235 -32.93352,-13.8462c-1.8245,-1.946 -4.41854,-3.16179 -7.29655,-3.16179c-0.17886,0 -0.35663,0.00469 -0.53318,0.01397c-0.28113,-0.11162 -0.56231,-0.22312 -0.84354,-0.33447c-9.87821,-3.91123 -19.89605,-7.53352 -29.95592,-11.05444c-0.93268,-1.59733 -1.86681,-3.19372 -2.80264,-4.78899l-5.52955,-13.4289c-1.44337,-3.74782 -5.07871,-6.40716 -9.33517,-6.40716c-0.52974,0 -1.04986,0.04119 -1.55733,0.12054c-0.46778,-1.1384 -0.93555,-2.27679 -1.40333,-3.41519c-10.03164,-24.41328 -20.06328,-48.82655 -30.09492,-73.23983v-78.37177h597v355z" data-paper-data="{&quot;index&quot;:null}" fill="#3acfff" stroke="none" stroke-width="0" stroke-linecap="butt"/><path d="M-40.03719,-107.92532c-0.99899,-0.42602 -1.99783,-0.85265 -2.99655,-1.27978c-0.15452,-2.042 -0.30337,-4.08462 -0.44674,-6.12763c1.12344,2.47927 2.2733,4.94761 3.44329,7.40741z" data-paper-data="{&quot;index&quot;:null}" fill="#3acfff" stroke="none" stroke-width="0" stroke-linecap="butt"/><path d="M-113.42793,-108.68066c-2.08625,-3.61757 -4.17045,-7.23636 -6.25529,-10.85463c1.91759,0.72992 3.83076,1.46906 5.73879,2.21883v5.2227h0.17072c-0.04627,0.33296 -0.08649,0.66729 -0.12028,1.00308c-0.00331,0.0329 0.1692,0.91994 0.46606,2.41001z" data-paper-data="{&quot;index&quot;:null}" fill="#3acfff" stroke="none" stroke-width="0" stroke-linecap="butt"/><path d="M-88.71778,-105.01932c-0.40253,-0.03088 -0.78896,-0.05087 -1.15982,-0.06043c-0.09174,-0.81524 -0.18376,-1.63044 -0.27607,-2.44561c3.11268,1.32259 6.22201,2.65434 9.32981,3.9891c0.02041,0.13051 0.04335,0.26018 0.06875,0.38896c-2.5656,-0.9957 -5.21964,-1.66155 -7.96266,-1.87202z" data-paper-data="{&quot;index&quot;:null}" fill="#3acfff" stroke="none" stroke-width="0" stroke-linecap="butt"/><text transform="translate(167.06393,23.90624) scale(0.78169,0.78169)" font-size="40" xml:space="preserve" data-paper-data="{&quot;index&quot;:null}" fill="#000000" fill-rule="nonzero" stroke="none" stroke-width="1" stroke-linecap="butt" stroke-linejoin="miter" stroke-miterlimit="10" stroke-dasharray="" stroke-dashoffset="0" font-family="Sans Serif" font-weight="normal" text-anchor="start" style="mix-blend-mode: normal"><tspan x="0" dy="0">How To Play</tspan></text><path d="M164.80557,30.15624l1,-143" data-paper-data="{&quot;index&quot;:null}" fill="none" stroke="#000000" stroke-width="1.5" stroke-linecap="round"/></g></g></svg>