<svg version="1.1" xmlns="http://www.w3.org/2000/svg" xmlns:xlink="http://www.w3.org/1999/xlink" width="597" height="359.0911" viewBox="0,0,597,359.0911"><g transform="translate(186,326)"><g data-paper-data="{&quot;isPaintingLayer&quot;:true}" fill-rule="nonzero" stroke-linejoin="miter" stroke-miterlimit="10" stroke-dasharray="" stroke-dashoffset="0" style="mix-blend-mode: normal"><path d="M-186,29v-355h597v78.37177c-10.03164,24.41328 -20.06328,48.82655 -30.09492,73.23983c-0.46778,1.1384 -0.93555,2.27679 -1.40333,3.41519c-0.50747,-0.07935 -1.02759,-0.12054 -1.55733,-0.12054c-4.25646,0 -7.8918,2.65934 -9.33517,6.40716l-5.52955,13.4289c-0.93583,1.59527 -1.86996,3.19166 -2.80264,4.78899c-10.05987,3.52092 -20.07771,7.14321 -29.95592,11.05444c-0.28123,0.11135 -0.56241,0.22285 -0.84354,0.33447c-0.17655,-0.00928 -0.35432,-0.01397 -0.53318,-0.01397c-2.87801,0 -5.47205,1.21579 -7.29655,3.16179c-11.02427,4.48385 -21.9866,9.14838 -32.93352,13.8462c0.80775,-12.14154 1.42936,-24.29113 1.90249,-36.40309l0.31763,-8.15481c0.00661,-0.1492 0.00995,-0.29926 0.00995,-0.4501c0,-5.52284 -4.47715,-10 -10,-10c-3.40274,0 -6.40852,1.69954 -8.2148,4.29607l-4.92253,6.89155l0.12061,0.08615c-0.22185,0.23896 -0.43826,0.48394 -0.64882,0.7354c-2.15783,2.57701 -3.5813,5.61688 -4.79875,8.78638c-0.45349,-4.56786 -1.13273,-9.12285 -1.57541,-13.69133l-0.99892,-9.98924c-0.44796,-5.10831 -4.73676,-9.11498 -9.96138,-9.11498c-4.49839,0 -8.30305,2.97024 -9.55975,7.05648l-6.25163,18.75491c-1.44506,2.4969 -1.89755,5.45053 -2.73508,8.2112c-0.05932,0.19553 -10.02511,34.47941 -11.12424,38.26061c-4.68906,2.11984 -8.7315,4.1613 -11.10544,5.37582c9.77964,-22.21677 19.18838,-44.57739 28.59242,-67.01426c2.57702,-6.14845 5.1549,-12.29653 7.73106,-18.44534c2.52991,-6.03841 6.01845,-11.76017 7.59085,-18.1151l8.71612,-17.43225c0.73163,-1.38963 1.1457,-2.97249 1.1457,-4.65207c0,-5.52284 -4.47716,-10 -10,-10c-3.84941,0 -7.19082,2.17504 -8.86231,5.36318l-2.54261,4.62966c-3.06368,5.60306 -5.65652,11.49059 -9.19105,16.80919c-3.53453,5.3186 -7.96303,9.9856 -11.93745,14.98405c-11.27038,14.17425 -22.95107,28.15615 -33.95111,42.56214c0.04652,-1.16984 0.0738,-1.8633 0.07525,-1.91658c0.11732,-4.30113 2.02477,-9.06068 0.09785,-12.90781c-3.47565,-6.93921 -7.58748,-17.09818 -15.33712,-17.51764c-7.58633,-0.41062 -12.52214,9.28219 -16.42876,15.79827c-3.42421,5.71143 -3.741,12.7423 -5.21876,19.27876c-3.49388,0.45216 -6.4222,2.7076 -7.82102,5.80241l-8.53337,17.8425c-3.00865,4.23524 -4.82176,9.174 -6.83662,13.99403c0.02378,-0.22526 0.04086,-0.45043 0.05072,-0.67548c0.31502,-0.97755 0.6283,-1.95525 0.93944,-2.93316l1.90993,-5.72979c0.37994,-1.05681 0.58698,-2.19608 0.58698,-3.38372c0,-5.52284 -4.47715,-10 -10,-10c-3.70645,0 -6.94192,2.01647 -8.66922,5.0122l-2.9057,4.84284l0.23723,0.14234c-0.29905,0.3342 -0.58286,0.68479 -0.84959,1.05371c-0.77247,1.06841 -1.39213,2.21092 -1.90132,3.40693c-1.65456,-3.23977 -5.02393,-5.45802 -8.91139,-5.45802c-4.64711,0 -8.55386,3.16988 -9.67597,7.46535l-1.83286,6.41501c-3.33821,8.29129 -6.65751,16.59017 -9.9802,24.88768c-0.29985,0.7134 -0.60117,1.4262 -0.90348,2.1386c-0.93689,-1.57987 -2.29635,-2.87966 -3.92268,-3.74363c-0.38557,-1.49789 -0.73312,-2.99538 -0.97021,-4.49173l-0.81495,-5.09346c-0.69043,-4.84925 -4.85961,-8.57782 -9.89964,-8.57782c-1.44875,0 -2.82553,0.30808 -4.06842,0.86229c-0.12877,-7.45717 0.47505,-30.96652 0.06842,-32.86229v-11c0,-5.52284 -4.47716,-10 -10,-10c-4.75901,0 -8.74158,3.32437 -9.75216,7.77758l-0.94927,3.79707l0.70143,0.17535v0.06072l-0.92507,0.96744c-0.08369,11.67925 -1.90231,22.61771 -3.0294,34.26867c-0.36147,3.73664 -0.48214,7.50001 -0.6214,11.25999c-3.11237,3.45121 -4.55846,8.45988 -5.295,13.09136c-0.24987,1.57123 -0.07449,10.57015 0,11.20364c0.12195,1.03699 0.88058,1.93403 0.99685,2.9703c-0.52253,2.2169 -0.93981,4.44877 -1.10082,6.71899c-0.93038,13.11888 -0.02516,26.57372 -0.02516,39.70889c0,3.68312 0,7.36625 0,11.04938c-5.05332,0.50173 -9,4.76528 -9,9.95062c0,1.42221 0.2969,2.77508 0.83209,4c-0.53519,1.22492 -0.83209,2.57779 -0.83209,4c0,1.82144 0.48697,3.52913 1.33782,5c-0.85085,1.47087 -1.33782,3.17856 -1.33782,5c0,1.61861 0.38456,3.14741 1.06729,4.5c-0.68273,1.35259 -1.06729,2.88139 -1.06729,4.5c0,1.82144 0.48697,3.52913 1.33782,5c-0.85085,1.47087 -1.33782,3.17856 -1.33782,5c0,1.86027 0.50796,3.60191 1.39274,5.09377z" fill="#3acfff" stroke="none" stroke-width="0" stroke-linecap="butt"/><path d="M187.89841,-122.13544l-0.09969,-0.48907l0.1344,0.0064l0.17669,-3.71052c4.72429,-6.92918 9.73127,-14.28935 10.87166,-15.81483c2.57618,-3.44611 5.19907,-6.8626 7.85292,-10.25885c-0.99368,2.37099 -1.98739,4.74197 -2.98114,7.11294c-1.29426,3.08794 -2.60054,6.16967 -3.91771,9.24587c-3.92513,0.39324 -7.18123,3.05625 -8.43637,6.65709l-2.91803,7.78141l0.15991,0.05997c-0.11649,0.15792 -0.23132,0.31728 -0.34443,0.47817c-0.33808,0.48089 -0.62435,0.98617 -0.86908,1.51085c0.12307,-0.85998 0.24667,-1.7198 0.37086,-2.57943z" fill="#3acfff" stroke="none" stroke-width="0" stroke-linecap="butt"/><path d="M268.48048,-115.33273c-0.14337,2.04301 -0.29222,4.08563 -0.44674,6.12763c-0.99872,0.42713 -1.99756,0.85376 -2.99655,1.27978c1.16999,-2.4598 2.31985,-4.92814 3.44329,-7.40741z" fill="#3acfff" stroke="none" stroke-width="0" stroke-linecap="butt"/><path d="M338.42793,-108.68067c0.29686,-1.49007 0.46937,-2.37711 0.46606,-2.41001c-0.03379,-0.33579 -0.07401,-0.67012 -0.12028,-1.00308h0.17072v-5.2227c1.90803,-0.74977 3.8212,-1.48891 5.73879,-2.21883c-2.08484,3.61827 -4.16904,7.23706 -6.25529,10.85463z" fill="#3acfff" stroke="none" stroke-width="0" stroke-linecap="butt"/><path d="M313.71777,-105.01932c-2.74302,0.21047 -5.39706,0.87632 -7.96266,1.87202c0.0254,-0.12878 0.04834,-0.25845 0.06875,-0.38896c3.1078,-1.33476 6.21713,-2.66651 9.32981,-3.9891c-0.09231,0.81517 -0.18433,1.63037 -0.27607,2.44561c-0.37086,0.00956 -0.75729,0.02955 -1.15982,0.06043z" fill="#3acfff" stroke="none" stroke-width="0" stroke-linecap="butt"/><path d="" fill="#3acfff" stroke="none" stroke-width="0" stroke-linecap="butt"/><path d="M399.40422,-166.78694c3.86526,-9.40661 7.73053,-18.81322 11.59578,-28.21983v30.75851c-3.998,1.45218 -7.99632,2.9034 -12.00236,4.33239c-0.94256,0.33622 -1.88586,0.6712 -2.82981,1.0051c1.0788,-2.62539 2.1576,-5.25078 3.2364,-7.87618z" fill="#3acfff" stroke="none" stroke-width="0" stroke-linecap="butt"/><path d="M396.82945,-129.61509c-0.05917,-0.38762 -0.14058,-0.76791 -0.24291,-1.13954c0.47404,-0.83327 0.94807,-1.66669 1.42217,-2.50022l3.62697,-6.3767c0.45615,-0.16076 0.91215,-0.32178 1.36799,-0.48304c-1.05598,2.93328 -2.11197,5.86656 -3.16795,8.79984c-1.01909,0.53664 -2.01943,1.10628 -3.00627,1.69967z" fill="#3acfff" stroke="none" stroke-width="0" stroke-linecap="butt"/><path d="" fill="#3acfff" stroke="none" stroke-width="0" stroke-linecap="butt"/><text transform="translate(-108.7836,23.90624) scale(0.78169,0.78169)" font-size="40" xml:space="preserve" fill="#000000" fill-rule="nonzero" stroke="none" stroke-width="1" stroke-linecap="butt" stroke-linejoin="miter" stroke-miterlimit="10" stroke-dasharray="" stroke-dashoffset="0" font-family="Sans Serif" font-weight="normal" text-anchor="start" style="mix-blend-mode: normal"><tspan x="0" dy="0">Normal</tspan></text><path d="M30.82102,-117.08421l-5.62659,-33.75955" fill="none" stroke="#000000" stroke-width="0.5" stroke-linecap="round"/><path d="M15.19443,30.15624l-1,-143" fill="none" stroke="#000000" stroke-width="1.5" stroke-linecap="round"/><path d="" fill="#9966ff" stroke="none" stroke-width="0.5" stroke-linecap="butt"/></g></g></svg>