<svg version="1.1" xmlns="http://www.w3.org/2000/svg" xmlns:xlink="http://www.w3.org/1999/xlink" width="92.35432" height="301.97153" viewBox="0,0,92.35432,301.97153"><g transform="translate(-191.03138,91.07306)"><g data-paper-data="{&quot;isPaintingLayer&quot;:true}" fill="none" fill-rule="nonzero" stroke-linecap="round" stroke-linejoin="miter" stroke-miterlimit="10" stroke-dasharray="" stroke-dashoffset="0" style="mix-blend-mode: normal"><path d="M221.60081,197.02522l18.81735,-34.22966l17.98103,34.40887z" stroke="#000000" stroke-width="17.5"/><path d="M221.89436,196.64295l17.6226,-25.50797l17.98103,25.62744" stroke="#000000" stroke-width="17.5"/><path d="M257.02008,196.52348l-28.37537,-2.09082l12.48516,-17.44339l11.17094,19.29525" stroke="#000000" stroke-width="17.5"/><path d="M235.63401,190.19129l15.89021,4.36085" stroke="#000000" stroke-width="17.5"/><path d="M237.48588,188.99653l-1.73239,0.59738" stroke="#000000" stroke-width="17.5"/><path d="M238.91958,188.10047l3.58426,-4.5998l1.97134,7.34773" stroke="#000000" stroke-width="17.5"/><path d="M256.32473,175.66373l12.97868,26.41543l-62.14498,-0.30538l15.8798,-24.27777" stroke="#ff0000" stroke-width="17.5"/><path d="M224.56513,175.35835l17.10133,-26.56813l14.2002,25.80468" stroke="#2100ff" stroke-width="17.5"/><path d="M213.57142,178.25946l27.63696,-40.15757l25.65198,37.25645" stroke="#2100ff" stroke-width="17.5"/><path d="M219.06827,161.05635l22.90355,-54.63116l14.96366,40.31026" stroke="#2100ff" stroke-width="1.5"/><path d="M242.12452,107.95209l1.41925,-198.27515" stroke="#2100ff" stroke-width="1.5"/></g></g></svg>